<svg xmlns="http://www.w3.org/2000/svg" viewBox="0 0 1600 760">
  <defs>
    <linearGradient id="sky" x1="0" x2="0" y1="0" y2="1">
      <stop offset="0%" stop-color="#95d8ff"/>
      <stop offset="60%" stop-color="#dff7ff"/>
      <stop offset="100%" stop-color="#f8fff9"/>
    </linearGradient>
    <linearGradient id="water" x1="0" x2="1" y1="0" y2="0">
      <stop offset="0%" stop-color="#4ab2cf"/>
      <stop offset="50%" stop-color="#79d4e6"/>
      <stop offset="100%" stop-color="#5fb8d1"/>
    </linearGradient>
    <linearGradient id="hill1" x1="0" x2="0" y1="0" y2="1">
      <stop offset="0%" stop-color="#87d29c"/>
      <stop offset="100%" stop-color="#4e9d68"/>
    </linearGradient>
    <linearGradient id="hill2" x1="0" x2="0" y1="0" y2="1">
      <stop offset="0%" stop-color="#5fb67e"/>
      <stop offset="100%" stop-color="#2d714c"/>
    </linearGradient>
    <filter id="shadow" x="-20%" y="-20%" width="140%" height="140%">
      <feDropShadow dx="0" dy="10" stdDeviation="12" flood-color="#174431" flood-opacity="0.18"/>
    </filter>
  </defs>

  <rect width="1600" height="760" fill="url(#sky)"/>
  <circle cx="1290" cy="120" r="66" fill="#ffd769"/>
  <circle cx="1290" cy="120" r="86" fill="#ffd769" opacity="0.2"/>

  <g opacity="0.85">
    <ellipse cx="290" cy="130" rx="92" ry="28" fill="#ffffff"/>
    <ellipse cx="370" cy="130" rx="70" ry="24" fill="#ffffff"/>
    <ellipse cx="1120" cy="180" rx="110" ry="32" fill="#ffffff"/>
    <ellipse cx="1215" cy="178" rx="76" ry="26" fill="#ffffff"/>
  </g>

  <path d="M0 470C118 399 204 367 313 388C430 410 488 459 607 458C704 458 744 412 836 393C949 370 1015 424 1117 431C1234 439 1300 364 1410 356C1491 350 1555 376 1600 405V760H0Z" fill="url(#hill1)"/>
  <path d="M0 548C117 492 199 479 308 496C424 515 490 572 614 573C711 574 754 531 839 513C958 487 1010 530 1111 539C1223 549 1313 493 1422 486C1494 482 1551 503 1600 526V760H0Z" fill="url(#hill2)"/>

  <g fill="#2d714c" opacity="0.92">
    <path d="M202 439L298 258L395 439Z"/>
    <path d="M322 439L426 214L530 439Z"/>
    <path d="M972 422L1080 240L1188 422Z"/>
    <path d="M1118 430L1236 208L1354 430Z"/>
  </g>

  <path d="M150 532H1450C1496 532 1534 570 1534 616C1534 662 1496 700 1450 700H150C104 700 66 662 66 616C66 570 104 532 150 532Z" fill="url(#water)" filter="url(#shadow)"/>
  <path d="M140 597C190 575 240 620 290 597C340 575 390 620 440 597C490 575 540 620 590 597C640 575 690 620 740 597C790 575 840 620 890 597C940 575 990 620 1040 597C1090 575 1140 620 1190 597C1240 575 1290 620 1340 597C1390 575 1440 620 1490 597" fill="none" stroke="#ffffff" stroke-width="8" stroke-linecap="round" opacity="0.65"/>

  <g filter="url(#shadow)">
    <path d="M630 560H860L815 624H675Z" fill="#7b5532"/>
    <rect x="680" y="510" width="130" height="50" rx="8" fill="#d3ac6d"/>
    <path d="M670 510L744 448L820 510Z" fill="#9b703f"/>
    <rect x="722" y="530" width="46" height="30" rx="4" fill="#ffffff" opacity="0.45"/>
  </g>

  <g>
    <rect x="200" y="470" width="18" height="88" fill="#6f4e34"/>
    <path d="M209 470C257 452 295 474 316 512C279 517 244 504 209 470Z" fill="#3a8f57"/>
    <path d="M209 482C252 436 305 428 358 455C320 482 268 495 209 482Z" fill="#56b772"/>
    <path d="M209 496C262 486 321 504 351 544C300 541 252 530 209 496Z" fill="#78cf8e"/>
  </g>

  <g>
    <rect x="1372" y="474" width="18" height="92" fill="#6f4e34"/>
    <path d="M1381 474C1416 438 1470 430 1518 456C1483 485 1435 494 1381 474Z" fill="#56b772"/>
    <path d="M1381 486C1426 467 1472 493 1500 530C1458 532 1416 520 1381 486Z" fill="#78cf8e"/>
  </g>
</svg>
