<svg xmlns="http://www.w3.org/2000/svg" viewBox="0 0 600 400">
  <defs>
    <linearGradient id="sky" x1="0" x2="0" y1="0" y2="1">
      <stop offset="0%" stop-color="#7dd6ff"/>
      <stop offset="100%" stop-color="#edfaff"/>
    </linearGradient>
    <linearGradient id="sea" x1="0" x2="1" y1="0" y2="0">
      <stop offset="0%" stop-color="#46bbdd"/>
      <stop offset="100%" stop-color="#78dbf2"/>
    </linearGradient>
  </defs>
  <rect width="600" height="400" fill="url(#sky)"/>
  <circle cx="490" cy="72" r="40" fill="#ffd769"/>
  <rect y="175" width="600" height="120" fill="url(#sea)"/>
  <rect y="295" width="600" height="105" fill="#f2d498"/>
  <path d="M0 208C25 197 50 219 75 208C100 197 125 219 150 208C175 197 200 219 225 208C250 197 275 219 300 208C325 197 350 219 375 208C400 197 425 219 450 208C475 197 500 219 525 208C550 197 575 219 600 208" fill="none" stroke="#ffffff" stroke-width="4" stroke-linecap="round" opacity="0.8"/>
  <g>
    <rect x="118" y="154" width="12" height="138" fill="#7c5835"/>
    <path d="M124 155C163 134 196 156 214 188C183 190 152 182 124 155Z" fill="#4da468"/>
    <path d="M124 165C152 121 193 114 234 137C204 164 168 171 124 165Z" fill="#3a8e57"/>
    <path d="M124 177C168 168 212 185 233 218C193 217 153 207 124 177Z" fill="#77cb89"/>
  </g>
  <path d="M332 315L378 222L424 315Z" fill="#ff916f"/>
  <path d="M352 315L378 262L404 315Z" fill="#ffd77d"/>
  <text x="300" y="70" text-anchor="middle" font-size="30" font-family="Arial" fill="#184f3c">Kovalam</text>
</svg>
